# xmcd
#
# Track frame offsets: 
#        150
#        13264
#        26428
#        39561
#        51118
#        65679
#        77511
#        91026
#        103716
#        114805
#        127726
#        141019
#        153176
#        168255
#        181886
#        195438
#        208707
#        222286
#        235633
#        248533
#        262452
#
# Disc length: 3660 seconds
#
# Revision: 2
# Processed by: cddbd v1.5.2PL0 Copyright (c) Steve Scherf et al.
# Submitted via: ExactAudioCopy v1.3
#
DISCID=0d0e4a15
DTITLE=Big Joe Turner - The Ultimate Jazz Archive Set 14
DYEAR=2005
DGENRE=Blues
TTITLE0=Nobody In My Mind   
TTITLE1=Somebody Got To Go   
TTITLE2=Ice Man   
TTITLE3=Chewed Up Grass   
TTITLE4=Rocks In My Bed   
TTITLE5=Blues On Central Avenue   
TTITLE6=Goin' To Chicago Blues   
TTITLE7=Sun Risin' Blues   
TTITLE8=Blues In The Night   
TTITLE9=Cry Baby Blues   
TTITLE10=It's The Same Old Story   
TTITLE11=Rebecca   
TTITLE12=Little Gal's Blues   
TTITLE13=I Got A Gal (For Every Day In The Week)   
TTITLE14=S. K. Blues Part 1   
TTITLE15=S. K. Blues Part 2   
TTITLE16=Johnson And Turner Blues   
TTITLE17=Watch That Jive   
TTITLE18=Howlin' Winds   
TTITLE19=Doggin' The Blues (Low Dog Blues)   
TTITLE20=I Got My Discharge Papers   
EXTD=YEAR: 2005
EXTT0=
EXTT1=
EXTT2=
EXTT3=
EXTT4=
EXTT5=
EXTT6=
EXTT7=
EXTT8=
EXTT9=
EXTT10=
EXTT11=
EXTT12=
EXTT13=
EXTT14=
EXTT15=
EXTT16=
EXTT17=
EXTT18=
EXTT19=
EXTT20=
PLAYORDER=
